<svg height="64" preserveAspectRatio="none" viewBox="0 0 64 64" width="64" xmlns="http://www.w3.org/2000/svg"><path d="m1.5205078 13.5083008s7.3276367 3.980957 8.1328125 7.0712891c0 0 2.4746094 7.2495117 2.4746094 11.3149414l5.6782227 8.8398438-5.0371094 10.6074218s3.3017578 9.1933594 20.8666992 5.3037109l3.5097656-7.6025391s11.7548828-1.5908203 12.8164063-15.734375l6.71875-8.9272461s4.9082031-5.7641602 5.8339844-7.8681641c.3564453-.8105469-2.2978516-8.8393555-8.6660156 0l-5.8017579 5.1274415s.9697266-6.3955078-4.4804688-5.9379883c0 0-.5947266-4.8276367-5.7617188-3.8647461 0 0-1.9873047-5.2080078-7.6435547-2.3881836 0 0-5.8339844 3.3505859-7.0712891 4.234375-1.237793.8842773-2.7089844 5.0473633-2.7089844 5.0473633s-3.7431641-5.3374023-5.2470703-7.3447266c-1.503418-2.0078125-5.9472656-4.0664063-9.6079102-3.8154297.0000002.0000001-4.6372068.456543-4.0053709 5.9370118z" fill="#ffb443"/><g fill="#dd8b0b"><path d="m17.8061523 15.7026367s.8637695 4.8769531-1.2578125 8.0595703c-2.121582 3.1821289 2.3867188 1.9443359 2.3867188 1.9443359l1.6791992-7.9560547z"/><path d="m21.0566406 15.0771484s7.9545898-2.453125 12.0214844 1.4360352c0 0 5.1923828.9726563 5.4433594 4.9506836 0 0 2.1582031-.8339844 5.6787109 2.9174805 0 0-3.0810547 1.8554688-3.4335938 3.0932617-.3310547 1.1665039 4.2998047 1.4916992 7.3466797-6.8950195 0 0-.7597656-6.7172852-5.0234375-4.3310547 0 0 .1552734-6.4345703-5.9443359-4.4106445 0-.0000001-1.5039062-8.2304688-16.0888672 3.2392577z"/><path d="m12.1279297 30.6572266s3.5488281 2.6035156 10.9619141 8.1318359c6.671875 4.9765625 23.0351563 4.7294922 11.5488281 9.3701172-3.2734375 1.3232422-14.1533203-1.3261719-18.1552734-4.640625l1.4082031-3.5380859z"/></g><path d="m25.6816406 58.4179688c-.0004883 0-.0004883 0-.0004883 0-11.1064453 0-13.5776367-6.5234375-13.6772461-6.8017578l-.1142578-.3173828 4.9882813-10.5048828-5.5629883-8.6606445v-.2387695c0-3.8823242-2.4067383-10.980957-2.4311523-11.0522461-.5390625-2.0605469-5.0380859-5.1455078-7.7514648-6.6196289l-.3710938-.2016602-.0483398-.4194336c-.5727539-4.9682617 3.5258789-6.809082 5.7734375-7.0878906l.0683594-.0087891.0693359.003418c4.484375.206543 7.6723633 2.4038086 9.1606445 4.3911133 1.0361328 1.3833008 3.0571289 4.2436523 4.2104492 5.8842773.5473633-1.2470703 1.4008789-2.9038086 2.3032227-3.5488281 1.2543945-.8964844 7.2026367-4.3422852 7.4555664-4.4887695 1.2724609-.6362305 2.4482422-.9462891 3.5390625-.9462891 2.890625 0 4.4013672 2.0834961 4.9833984 3.1459961.2822266-.0317383.5585938-.0478516.8242188-.0478516 3.2050781 0 4.6572266 2.2949219 5.1230469 3.9692383 1.4423828.0249023 2.5869141.519043 3.4042969 1.4697266.875 1.0170898 1.1816406 2.3676758 1.2685547 3.4677734l4.3457031-3.8408203c2.109375-2.9057617 4.109375-4.3789063 5.9462891-4.3789063 1.2460938 0 2.3828125.690918 3.2011719 1.9453125.6679688 1.0234375 1.1904297 2.5800781.8691406 3.3100586-.9628906 2.1879883-5.7558594 7.8291016-5.9589844 8.0678711l-6.5458984 8.7001953c-1.0791016 12.8125-10.8115234 15.6660156-13.0449219 16.1533203l-3.5039063 7.5908203-.3935547.0869141c-2.9326172.649414-5.6679688.9785156-8.1298829.9785156zm-12.0190429-7.0634766c.5825195 1.1728516 3.2998047 5.4375 12.0185547 5.4375h.0004883c2.234375 0 4.7177734-.2880859 7.3857422-.8554688l3.5263672-7.6376953.4414063-.0615234c.453125-.0634766 11.1191406-1.7011719 12.1162109-14.9892578l.0175781-.2382813 6.8623047-9.1171875c1.3515625-1.590332 4.9023438-5.9277344 5.7021484-7.6254883-.0126953-.3413086-.3232422-1.5185547-1.0908203-2.3457031-.4365234-.4711914-.9267578-.7099609-1.4541016-.7099609-.8935547 0-2.4306641.6552734-4.6806641 3.7768555l-.1210938.1342773-7.4697266 6.6015625.3261719-2.2041016c.0039063-.0263672.3818359-2.6982422-.8505859-4.1269531-.6015625-.6967773-1.4960938-.9873047-2.7578125-.8803711l-.7792969.0654297-.0957031-.7758789c-.0439453-.3325195-.5234375-3.2783203-3.6591797-3.2783203-.3574219 0-.7441406.0380859-1.1464844.1132813l-.6669922.1240234-.2421875-.6333008c-.0419922-.1074219-1.0869141-2.7021484-3.7519531-2.7021484-.8369141 0-1.7685547.2529297-2.769043.7514648-.0166016.0117188-6.0883789 3.5288086-7.2802734 4.3808594-.7104492.5073242-1.7670898 2.7597656-2.2900391 4.1962891l-.5351563 1.4692383-.8955078-1.28125c-.0351563-.0507813-3.5610352-5.0947266-5.0400391-7.0683594-1.199707-1.6025391-3.9741211-3.5356445-7.8583984-3.737793-.5727539.0898438-4.5356445.8583984-4.3305664 4.871582 1.6674805.9433594 7.3608398 4.3530273 8.1459961 7.3666992.0839844.2387695 2.4091797 7.0961914 2.4985352 11.2773438l5.7958984 9.0229492z" fill="#420707"/><path d="m28.0405273 47.1162109c-.0576172 0-.1162109-.0068359-.1748047-.0195313-8.7758789-1.9199219-10.7167969-5.8496094-10.7949219-6.015625-.1914063-.40625-.0170898-.890625.3891602-1.0820313.4033203-.1894531.8837891-.0195313 1.078125.3808594.0385742.0751953 1.8334961 3.4130859 9.675293 5.1289063.4384766.0957031.7163086.5292969.6206055.9677734-.0834961.3798829-.4199219.6396485-.7934571.6396485z" fill="#420707"/><path d="m32 13.5083008s-1.1313477 1.5878906-3.5009766 3.7114258c-1.4716797 1.3193359-.7270508 4.1411133 2.8671875 1.8935547 3.0820313-1.9287109 4.2753906-3.4106445 4.2753906-3.4106445z" fill="#dd8b0b"/><path d="m38.6181641 18.0166016s-4.3945313 5.2861328-1.9199219 5.6391602c2.4755859.3540039 3.0097656-.8652344 4.4248047-2.7661133z" fill="#dd8b0b"/><path d="m29.8432617 19.1289063c-.2329102 0-.4638672-.0996094-.6245117-.2919922-.2880859-.3447266-.2416992-.8574219.1030273-1.1450195.0556641-.0463867 5.5688477-4.6450195 7.9887695-6.4995117.3583984-.2739258.8671875-.2041016 1.1396484.1508789.2724609.3564453.2050781.8666992-.1513672 1.1401367-2.3925781 1.8339844-7.8798828 6.4106445-7.9350586 6.456543-.1523436.126953-.3369139.1889648-.5205077.1889648z" fill="#420707"/><path d="m37.5927734 23.3369141c-.1904297 0-.3818359-.0664063-.5351563-.2011719-.3378906-.2958984-.3720703-.8095703-.0761719-1.1474609l5.9736328-6.8212891c.2958984-.3383789.8115234-.3696289 1.1464844-.0761719.3378906.2958984.3720703.8095703.0761719 1.1474609l-5.9736328 6.8212891c-.1601562.1835938-.3857421.2773438-.6113281.2773438z" fill="#420707"/><path d="m44.2001953 26.5742188c-.1992188 0-.3984375-.0722656-.5546875-.21875-.328125-.3061523-.3457031-.8208008-.0400391-1.1489258l3.8466797-4.1206055c.3066406-.3286133.8232422-.3452148 1.1494141-.0395508.328125.3061523.3457031.8208008.0400391 1.1489258l-3.8466797 4.1206055c-.1601563.1713867-.3779297.2583008-.5947266.2583008z" fill="#420707"/></svg>